<?xml version="1.0" standalone="no"?>
<!DOCTYPE svg PUBLIC "-//W3C//DTD SVG 1.1//EN" "http://www.w3.org/Graphics/SVG/1.1/DTD/svg11.dtd" >
<svg xmlns="http://www.w3.org/2000/svg">
<metadata></metadata>
<defs>
<font id="balkerregular" horiz-adv-x="1206" >
<font-face units-per-em="2048" ascent="1638" descent="-410" />
<missing-glyph horiz-adv-x="451" />
<glyph unicode="&#xd;" horiz-adv-x="451" />
<glyph unicode=" "  horiz-adv-x="451" />
<glyph unicode="&#x09;" horiz-adv-x="451" />
<glyph unicode="&#xa0;" horiz-adv-x="451" />
<glyph unicode="&#x22;" horiz-adv-x="819" d="M295 1382q0 140 82 243.5t207 103.5q51 0 51 -52q0 -51 -51 -51q-74 0 -130.5 -69.5t-56.5 -174.5q0 -51 -51 -51t-51 51zM188 1382q0 105 -57 174.5t-131 69.5q-51 0 -51 51q0 52 51 52q125 0 208 -103.5t83 -243.5q0 -51 -51 -51q-52 0 -52 51z" />
<glyph unicode="(" horiz-adv-x="553" d="M330 -51q-172 0 -281 272q-100 250 -100 598t100 598q109 273 281 273q51 0 51 -52q0 -51 -51 -51q-101 0 -187 -207q-92 -229 -92 -561t92 -561q86 -207 187 -207q51 0 51 -51t-51 -51z" />
<glyph unicode=")" horiz-adv-x="584" d="M0 49q100 0 186 207q93 229 93 561t-93 561q-86 207 -186 207q-51 0 -51 51q0 52 51 52q172 0 281 -273q100 -250 100 -598t-100 -598q-109 -272 -281 -272q-51 0 -51 51t51 51z" />
<glyph unicode="," horiz-adv-x="510" d="M297 162q0 -139 -83 -243.5t-206 -104.5q-51 0 -51 51t51 51q72 0 129.5 69.5t57.5 176.5q0 51 51 51t51 -51z" />
<glyph unicode="." horiz-adv-x="449" d="M88 213q55 0 97 -38t42 -93q0 -57 -42 -95t-97 -38t-97 38t-42 95q0 55 42 93t97 38zM88 111q-37 0 -37 -29q0 -31 37 -31t37 31q0 29 -37 29z" />
<glyph unicode=":" horiz-adv-x="438" d="M92 991q55 0 97 -38t42 -93q0 -57 -42 -95t-97 -38t-97 38t-42 95q0 55 42 93t97 38zM92 889q-37 0 -37 -29q0 -31 37 -31t37 31q0 29 -37 29zM86 567q55 0 97 -37.5t42 -93.5q0 -57 -42 -95t-97 -38t-97 38t-42 95q0 56 42 93.5t97 37.5zM86 465q-37 0 -37 -29 q0 -30 37 -30t37 30q0 29 -37 29z" />
<glyph unicode=";" horiz-adv-x="438" d="M92 991q55 0 97 -38t42 -93q0 -57 -42 -95t-97 -38t-97 38t-42 95q0 55 42 93t97 38zM92 889q-37 0 -37 -29q0 -31 37 -31t37 31q0 29 -37 29zM227 539q0 -140 -83 -243t-207 -103q-50 0 -50 51t50 51q73 0 130.5 68.5t57.5 175.5q0 51 51 51t51 -51z" />
<glyph unicode="A" horiz-adv-x="1436" d="M1153 -16q12 -35 47 -35q53 0 53 49q0 10 -2 18l-579 1639q-17 43 -49 43q-33 0 -50 -43l-575 -1639q-2 -8 -2 -18q0 -49 53 -49q35 0 47 35l256 729h543zM623 1485l235 -670h-471z" />
<glyph unicode="B" horiz-adv-x="1110" d="M-51 -12h2q6 -39 49 -39q51 0 51 51v141q17 -22 37 -43q139 -147 338 -147q197 0 336 147q139 150 139 359t-139 356q-96 102 -221 135l24 25q111 121 111 293t-109 297q-106 127 -243 127q-140 0 -258 -136q-9 -10 -15 -18v102q0 52 -51 52t-51 -52v-1650zM426 860 q152 0 262.5 -117.5t110.5 -285.5t-111 -287q-110 -117 -262 -117q-154 0 -264 117q-111 119 -111 287v16q4 158 111 268q110 119 264 119zM324 1587q88 0 165 -90q84 -96 84 -231q0 -133 -86 -226q-77 -84 -170 -84q-98 0 -178 78q-88 86 -88 213v13q4 126 94 229 q86 98 179 98zM172 887q-45 -31 -84 -74q-20 -20 -37 -43v207l17 -16q49 -48 104 -74z" />
<glyph unicode="C" horiz-adv-x="1300" d="M1153 555q12 -180 -149 -381q-183 -225 -426 -225q-267 0 -451 262q-178 254 -178 608q0 355 178 608q184 263 451 263q247 0 378 -144q105 -116 166 -375q8 -28 -9 -45.5t-42 -17.5q-39 0 -47 39q-57 235 -143 330q-103 110 -303 110q-211 0 -369 -221t-158 -547 q0 -325 158 -546.5t369 -221.5q194 0 346 189q137 168 127 307q-4 55 51 55q47 0 51 -47z" />
<glyph unicode="D" horiz-adv-x="1372" d="M51 1638q0 52 -51 52t-51 -52v-1638q0 -51 51 -51t51 51v262q29 -45 66 -90q182 -225 426 -225q266 0 450 262q178 254 178 608t-178 608q-184 263 -450 263q-334 0 -492 -261v211zM53 545l-2 610q53 217 162 318q121 112 330 112q211 0 368 -221q158 -221 158 -547 q0 -325 -158 -547q-157 -221 -368 -221q-195 0 -346 189q-138 168 -144 307z" />
<glyph unicode="E" horiz-adv-x="1217" d="M51 1638q0 52 -51 52t-51 -52v-751v-6v-738v-8v-135q0 -51 51 -51t51 51v92h1041q51 0 51 51q0 52 -51 52h-1041v634h803q51 0 51 52q0 51 -51 51h-803v530h940q51 0 51 51q0 52 -51 52h-940v73z" />
<glyph unicode="F" horiz-adv-x="995" d="M51 1638q0 52 -51 52t-51 -52v-1638q0 -51 51 -51t51 51v829h803q51 0 51 52q0 51 -51 51h-803v530h940q51 0 51 51q0 52 -51 52h-940v73z" />
<glyph unicode="G" horiz-adv-x="1513" d="M1362 512q51 0 51 51t-51 51h-678q-51 0 -51 -51t51 -51h367q-7 -125 -127 -272q-152 -189 -346 -189q-211 0 -369 221q-158 222 -158 547q0 326 158 547t369 221q200 0 303 -110q86 -95 143 -330q8 -39 47 -39q25 0 41 16q18 19 10 47q-61 259 -166 375 q-131 144 -378 144q-267 0 -451 -263q-178 -253 -178 -608q0 -354 178 -608q184 -262 451 -262q243 0 426 225q143 176 149 338h209z" />
<glyph unicode="H" horiz-adv-x="1106" d="M51 1638q0 52 -51 52t-51 -52v-1638q0 -51 51 -51t51 51v829h735v-829q0 -51 52 -51q51 0 51 51v1638q0 52 -51 52q-52 0 -52 -52v-706h-735v706z" />
<glyph unicode="I" horiz-adv-x="915" d="M6 1690q-51 0 -51 -52q0 -51 51 -51h289v-1536h-295q-51 0 -51 -51t51 -51h700q52 0 52 51t-52 51h-303v1536h310q51 0 51 51q0 52 -51 52h-701z" />
<glyph unicode="J" horiz-adv-x="1393" d="M494 1690q-52 0 -52 -52q0 -51 52 -51h292v-1104h-2v-159q-14 -103 -104 -181q-107 -92 -260 -92q-156 0 -262 92q-107 93 -107 217q0 125 103 215q102 91 258 91q51 0 51 51t-51 51q-193 0 -328 -117q-135 -116 -135 -291q0 -174 139 -292q139 -119 332 -119 q190 0 330 119q139 118 139 292v1227h307q51 0 51 51q0 52 -51 52h-702z" />
<glyph unicode="K" horiz-adv-x="1155" d="M51 1638q0 52 -51 52t-51 -52v-1638q0 -51 51 -51t51 51v815l887 -852q14 -14 35 -14q51 0 51 51q0 20 -16 37l-930 893l848 667q20 17 20 39q0 54 -51 54q-16 0 -31 -11l-813 -641v600z" />
<glyph unicode="L" horiz-adv-x="1098" d="M51 1638q0 52 -51 52t-51 -52v-1632v-6q0 -18 8 -31l2 -4l2 -2l2 -2q4 -4 8 -6q13 -6 29 -6h6h995q52 0 52 51t-52 51h-950v1587z" />
<glyph unicode="M" horiz-adv-x="1294" d="M-51 0q0 -51 51 -51t51 51v1397l414 -932q16 -39 47 -39t47 39l416 932v-1397q0 -51 51 -51t51 51v1638v2v5q-2 14 -6 22l-2 4l-4 4l-2 2l-4 4h-4q-2 2 -4 5q-11 4 -25 4h-8q-2 0 -4 -2q-33 -5 -39 -37l-463 -1041l-463 1041q-4 32 -37 37q-4 2 -10 2h-2h-6 q-10 -2 -19 -4l-4 -3l-4 -2l-4 -4l-2 -2l-4 -4v-2q-6 -10 -8 -24v-7v-6v-1632z" />
<glyph unicode="N" horiz-adv-x="784" d="M-51 0q0 -51 51 -51t51 51v1397l404 -910v-487q0 -51 51 -51t51 51v1638q0 52 -51 52t-51 -52v-897l-406 910q-4 32 -37 37q-2 2 -6 2h-6q-14 0 -25 -4l-4 -3l-4 -2l-4 -4l-2 -2l-4 -4v-2q-8 -12 -8 -29v-2v-6v-1632z" />
<glyph unicode="O" horiz-adv-x="1309" d="M528 1690q246 0 416 -265q162 -254 162 -606t-162 -606q-170 -264 -416 -264q-247 0 -417 264q-162 254 -162 606t162 606q170 265 417 265zM528 1587q-190 0 -331 -217q-146 -225 -146 -551q0 -325 146 -551q141 -217 331 -217q189 0 330 217q146 226 146 551 q0 326 -146 551q-141 217 -330 217z" />
<glyph unicode="P" horiz-adv-x="991" d="M51 1638q0 52 -51 52t-51 -52v-452v-21v-1165q0 -51 51 -51t51 51v864q12 -18 27 -35q131 -147 319 -147q189 0 318 147q131 150 131 357t-131 354q-129 150 -318 150q-188 0 -319 -150q-15 -16 -27 -33v131zM397 1587q142 0 244 -116.5t102 -284.5t-102 -285t-244 -117 q-141 0 -243 117q-103 117 -103 285v16q4 158 103 268q102 117 243 117z" />
<glyph unicode="Q" horiz-adv-x="1370" d="M528 1690q-247 0 -417 -265q-162 -254 -162 -606t162 -606q170 -264 417 -264q209 0 363 190l194 -176q17 -14 35 -14q51 0 51 51q0 23 -16 37l-205 186q156 250 156 596q0 352 -162 606q-170 265 -416 265zM528 1587q189 0 330 -217q146 -225 146 -551q0 -307 -130 -526 l-8 8l-278 256q-17 14 -35 14q-51 0 -51 -51q0 -22 16 -37l297 -274q-127 -158 -287 -158q-190 0 -331 217q-146 226 -146 551q0 326 146 551q141 217 331 217z" />
<glyph unicode="R" horiz-adv-x="1083" d="M51 1638q0 52 -51 52t-51 -52v-1638q0 -51 51 -51t51 51v864q12 -18 27 -35q121 -137 291 -147l436 -709q14 -24 41 -24q53 0 53 49q0 14 -8 29l-408 663q133 27 232 139q131 150 131 357t-131 354q-129 150 -318 150q-188 0 -319 -150q-15 -16 -27 -33v131zM397 1587 q142 0 244 -116.5t102 -284.5t-102 -285t-242 -117h-10q-137 2 -235 117q-103 117 -103 285v16q4 158 103 268q102 117 243 117z" />
<glyph unicode="S" horiz-adv-x="1311" d="M969 1212q0 152 -133.5 263.5t-325.5 111.5q-193 0 -326 -111.5t-133 -263.5q0 -151 133 -262.5t326 -111.5q244 0 432 -123q201 -131 201 -322q0 -190 -178.5 -317t-417.5 -127q-242 0 -416 123q-182 129 -182 319q0 51 51 51t51 -51q0 -135 141.5 -237.5t354.5 -102.5 q211 0 354 107q139 100 139 235q0 131 -156.5 236.5t-373.5 105.5q-229 0 -395 138.5t-166 338.5q0 201 166 339.5t395 138.5t395 -138.5t166 -339.5q0 -51 -51 -51t-51 51z" />
<glyph unicode="T" horiz-adv-x="1335" d="M0 1690q-51 0 -51 -52q0 -51 51 -51h520v-1587q0 -51 51 -51q52 0 52 51v1587h557q51 0 51 51q0 52 -51 52h-1180z" />
<glyph unicode="U" horiz-adv-x="1421" d="M1212 518v8v1112q0 52 -51 52t-51 -52v-1103v-9q0 -194 -154 -336q-153 -139 -374 -139q-224 0 -377 139q-148 134 -154 316v1132q0 52 -51 52t-51 -52v-1106v-6q0 -241 186 -409q187 -168 447 -168q258 0 444 168q182 166 186 401z" />
<glyph unicode="V" horiz-adv-x="1343" d="M49 1655l516 -1497l516 1497q13 35 47 35q54 0 54 -50q0 -8 -2 -18l-566 -1638q-16 -43 -49 -43t-49 43l-565 1638q-2 10 -2 18q0 50 53 50q35 0 47 -35z" />
<glyph unicode="W" horiz-adv-x="1294" d="M51 1638q0 52 -51 52t-51 -52v-1638v-2q0 -16 8 -29l2 -2q2 -6 8 -10l4 -2l4 -2q9 -2 19 -4h8h4q2 0 6 2q33 4 37 37l463 1040l463 -1040q6 -33 37 -37q6 -2 12 -2h8q17 2 27 8q6 4 8 10l2 2q8 13 8 29v1640q0 52 -51 52t-51 -52v-1398l-416 934q-16 38 -47 38t-47 -38 l-414 -932v1396z" />
<glyph unicode="X" horiz-adv-x="1210" d="M43 1665q-14 25 -41 25q-53 0 -53 -50q0 -14 8 -28l475 -799l-469 -786q-8 -15 -8 -29q0 -49 53 -49q27 0 41 24l443 742l444 -742q14 -24 41 -24q53 0 53 49q0 14 -8 29l-471 786l477 799q8 14 8 28q0 50 -53 50q-27 0 -41 -25l-450 -752z" />
<glyph unicode="Y" horiz-adv-x="1077" d="M45 1663q-16 27 -43 27q-53 0 -53 -50q0 -14 6 -26l428 -746l2 -868q0 -51 51 -51t51 51l2 868l429 746q6 12 6 26q0 50 -54 50q-26 0 -43 -27l-391 -680z" />
<glyph unicode="Z" horiz-adv-x="1130" d="M-2 -51h944q51 0 51 51t-51 51h-850l881 1546q14 11 16 35v13q-2 14 -6 22l-2 4l-10 10l-8 5q-9 2 -19 4h-944q-51 0 -51 -52q0 -51 51 -51h850l-881 -1548q-14 -10 -16 -35v-6q0 -18 8 -29q2 -4 4 -6l6 -6h2q2 0 4 -2l3 -2h2h6q2 -2 4 -2h4z" />
<glyph unicode="a" d="M469 1032q-217 0 -368.5 -158.5t-151.5 -381.5q0 -226 151 -386q152 -157 369 -157t369 157q24 27 47 56v-37h2v-125q0 -51 51 -51t51 51v125h2v754h-2v102q0 51 -51 51t-51 -51v-102h-2v-62q-23 29 -47 55q-152 160 -369 160zM469 930q172 0 295 -129q106 -113 121 -266 v-89q-15 -155 -121 -268q-123 -127 -295 -127t-295 127q-123 129 -123 314q0 182 123 309q123 129 295 129z" />
<glyph unicode="b" horiz-adv-x="1198" d="M469 1032q-217 0 -369 -160q-26 -28 -49 -57v823q0 52 -51 52t-51 -52v-1638q0 -51 51 -51t51 51v166q23 -31 49 -60q152 -157 369 -157t369 157q151 160 151 386q0 223 -151 380q-152 160 -369 160zM469 930q172 0 295 -128t123 -310q0 -185 -123 -314 q-123 -127 -295 -127t-295 127q-123 129 -123 314q0 182 123 309q123 129 295 129z" />
<glyph unicode="c" horiz-adv-x="1161" d="M967 330q10 -117 -144 -244q-164 -135 -358 -135q-215 0 -367.5 152.5t-152.5 367.5q0 217 153.5 386t368.5 169q358 0 473 -336q2 -10 2 -18q0 -49 -53 -49q-35 0 -47 34q-43 129 -119 193q-94 74 -256 74q-168 0 -294 -137.5t-126 -315.5q0 -172 123 -295t295 -123 q162 0 293 111q112 94 106 158q-6 55 51 55q48 0 52 -47z" />
<glyph unicode="d" d="M469 1032q-217 0 -368.5 -158.5t-151.5 -381.5q0 -226 151 -386q152 -157 369 -157t369 157q24 27 47 56v-10h2v-152q0 -51 51 -51t51 51v152h2v776h-2v710q0 52 -51 52t-51 -52v-710h-2v-111q-23 29 -47 55q-152 160 -369 160zM469 930q172 0 295 -129 q106 -113 121 -266v-89q-15 -155 -121 -268q-123 -127 -295 -127t-295 127q-123 129 -123 314q0 182 123 309q123 129 295 129z" />
<glyph unicode="e" horiz-adv-x="1161" d="M967 330q-4 47 -52 47q-57 0 -51 -55q6 -64 -106 -158q-131 -111 -293 -111q-172 0 -295 123t-123 295q0 80 25 152l825 -2v2q16 0 27 8l2 2q8 6 12 15t4 24v6q-2 16 -8 29q-119 319 -467 319q-215 0 -369 -170q-153 -168 -153 -385q0 -215 151 -369q154 -151 369 -151 q194 0 358 135q154 127 144 244zM813 727l-688 -2q20 31 47 61q127 138 295 138q162 0 256 -74q53 -45 90 -123z" />
<glyph unicode="f" horiz-adv-x="643" d="M51 1638q0 52 -51 52t-51 -52v-342v-16v-434v-6v-9v-831q0 -51 51 -51t51 51v788h373q51 0 51 52q0 51 -51 51h-373v407q6 117 80 199q80 90 188 90q107 0 187 -90q80 -88 80 -217q0 -51 51 -51t51 51q0 168 -108 289q-107 121 -261 121q-155 0 -264 -121q-2 -4 -4 -6v75 z" />
<glyph unicode="g" horiz-adv-x="1204" d="M469 1032q-217 0 -368.5 -158.5t-151.5 -381.5q0 -226 151 -386q152 -157 369 -157t369 157q26 29 49 60v-164l-4 -166v-12v-12q-4 -121 -80 -205q-80 -90 -187 -90q-108 0 -188 90q-80 88 -80 217q0 51 -51 51t-51 -51q0 -168 106 -289q109 -121 264 -121q154 0 261 121 q106 119 108 283v4l4 170v6v12v971q0 51 -51 51t-51 -51v-109h-2v-55q-23 29 -47 55q-152 160 -369 160zM469 930q172 0 295 -129q106 -111 121 -264v-91q-15 -155 -121 -268q-123 -127 -295 -127t-295 127q-123 129 -123 314q0 182 123 309q123 129 295 129z" />
<glyph unicode="h" horiz-adv-x="1204" d="M51 1638q0 52 -51 52t-51 -52v-1638q0 -51 51 -51t51 51v510q6 170 123 291q123 129 295 129t295 -129q121 -125 123 -303v-6v-492q0 -51 51 -51t51 51v483v9v6q-2 219 -151 374q-152 160 -369 160t-369 -160q-26 -28 -49 -57v823z" />
<glyph unicode="i" horiz-adv-x="268" d="M51 674v-674q0 -51 -51 -51t-51 51v674q0 51 51 51t51 -51zM-51 834v153q0 51 51 51t51 -51v-153q0 -52 -51 -52t-51 52z" />
<glyph unicode="j" horiz-adv-x="860" d="M682 975q0 51 -51 51t-51 -51l-5 -1145v-12q0 -129 -79 -217q-80 -90 -187 -90q-108 0 -188 90q-80 88 -80 217q0 51 -51 51t-51 -51q0 -168 106 -289q109 -121 264 -121q154 0 260 121q107 119 113 283v4v1159z" />
<glyph unicode="k" horiz-adv-x="1006" d="M51 1638q0 52 -51 52t-51 -52v-1638q0 -51 51 -51t51 51v481l170 111l524 -625q17 -18 39 -18q52 0 52 51q0 18 -13 33l-516 614l422 275q23 16 23 41q0 53 -52 53q-14 0 -28 -8l-621 -404v1034z" />
<glyph unicode="l" horiz-adv-x="268" d="M51 1638v-1638q0 -51 -51 -51t-51 51v1638q0 52 51 52t51 -52z" />
<glyph unicode="m" horiz-adv-x="1538" d="M51 971q0 51 -51 51t-51 -51v-971q0 -51 51 -51t51 51v629q6 116 80 198q80 91 188 91q109 0 189 -91q76 -86 78 -209v-618q0 -51 51 -51t51 51l2 610v6q2 125 80 211q80 91 188 91q107 0 187 -91q76 -86 80 -209l-2 -618q0 -51 51 -51t53 51v602v8q0 168 -108 289 q-107 121 -261 121q-213 0 -319 -203q-109 203 -320 203q-155 0 -264 -121q-2 -4 -4 -6v78z" />
<glyph unicode="n" horiz-adv-x="901" d="M690 616q-2 164 -108 283q-109 121 -263 121q-155 0 -264 -121q-2 -4 -4 -6v78q0 51 -51 51t-51 -51v-971q0 -51 51 -51t51 51v629q6 116 80 198q80 91 188 91q109 0 189 -91q76 -86 78 -217v-610q0 -51 51 -51t51 51z" />
<glyph unicode="o" horiz-adv-x="1200" d="M469 1032q217 0 368.5 -158.5t151.5 -381.5q0 -226 -151.5 -384.5t-368.5 -158.5t-368.5 158.5t-151.5 384.5q0 223 151.5 381.5t368.5 158.5zM469 930q-172 0 -295 -128t-123 -310q0 -185 123 -313t295 -128t295 128t123 313q0 182 -123 310t-295 128z" />
<glyph unicode="p" horiz-adv-x="1200" d="M469 1028q-217 0 -369 -160q-28 -28 -49 -59v168q0 49 -51 49t-51 -49v-1520q0 -51 51 -51t51 51v703q23 -29 49 -58q152 -159 369 -159t369 159q151 160 151 383q0 224 -151 383q-152 160 -369 160zM469 926q172 0 295 -129t123 -312q0 -182 -123 -311 q-123 -127 -295 -127t-295 127q-123 129 -123 311v19q6 170 123 293q123 129 295 129z" />
<glyph unicode="q" d="M469 1034q-217 0 -368.5 -159.5t-151.5 -382.5q0 -224 151 -383q152 -160 369 -160t369 160q24 26 47 55v-58h2v-643q0 -51 51 -51t51 51v1520q0 49 -51 49t-51 -49v-104h-2v-62q-23 29 -47 57q-152 160 -369 160zM469 932q172 0 295 -129q106 -113 121 -268v-89 q-15 -153 -121 -266q-123 -127 -295 -127t-295 127q-123 129 -123 312q0 182 123 311t295 129z" />
<glyph unicode="r" horiz-adv-x="827" d="M51 999q0 52 -51 52t-51 -52v-999q0 -51 51 -51t51 51v657q6 117 80 199q80 90 188 90q107 0 187 -90q80 -88 80 -217q0 -51 51 -51t51 51q0 168 -108 289q-107 121 -261 121q-155 0 -264 -121q-2 -4 -4 -6v77z" />
<glyph unicode="s" horiz-adv-x="1159" d="M809 739q0 78 -100 142q-111 67 -277 67t-276 -67q-101 -64 -101 -142q0 -77 101 -141q110 -68 276 -68q203 0 361 -75q178 -84 178 -217q0 -132 -162 -215q-147 -76 -346 -76q-201 0 -348 76q-162 81 -162 215q0 51 51 51t51 -51q0 -68 107 -125q121 -64 301 -64t299 64 q106 57 106 125q0 65 -118 124q-134 66 -320 66t-328 84q-149 90 -149 227q0 138 149 228q142 84 330 84q191 0 330 -84q149 -90 149 -228q0 -51 -51 -51t-51 51z" />
<glyph unicode="t" horiz-adv-x="1081" d="M383 944l2 -944q0 -51 51 -51t51 51l2 942l406 2q51 0 51 51q0 52 -51 52l-406 2l-2 266q0 51 -51 51t-51 -51l-2 -266l-383 -2q-51 0 -51 -52q0 -51 51 -51l383 -2v2z" />
<glyph unicode="u" d="M989 981q0 51 -51 51t-51 -51v-508q-6 -172 -123 -295q-123 -127 -295 -127t-295 127q-123 129 -123 314v6v483q0 51 -51 51t-51 -51v-543h2q16 -192 149 -332q152 -157 369 -157t369 157q26 29 49 60v-166q0 -51 51 -51t51 51v981z" />
<glyph unicode="v" horiz-adv-x="1186" d="M45 997l432 -880l432 880q15 29 43 29q54 0 54 -49q0 -12 -7 -25l-477 -975q-16 -34 -45 -34q-28 0 -45 34l-477 975q-6 13 -6 25q0 49 53 49q29 0 43 -29z" />
<glyph unicode="w" horiz-adv-x="1538" d="M639 158q106 -203 319 -203q154 0 261 121q106 117 106 295v604q0 51 -51 51t-51 -51l2 -621q-4 -123 -80 -209q-80 -88 -187 -88q-108 0 -188 88q-78 88 -80 220v6l-2 604q0 51 -51 51t-51 -51v-621q-2 -123 -78 -209q-80 -88 -189 -88q-108 0 -188 88q-74 82 -80 199 v631q0 51 -51 51t-51 -51v-971q0 -51 51 -51t51 51v78q2 -4 4 -6q109 -121 264 -121q211 0 320 203z" />
<glyph unicode="x" horiz-adv-x="1059" d="M39 1020q-14 18 -39 18q-51 0 -51 -51q0 -16 12 -33l379 -465l-373 -456q-12 -17 -12 -33q0 -51 53 -51q23 0 37 18l361 443l362 -443q14 -18 39 -18q51 0 51 51q0 16 -12 33l-375 456l381 465q12 17 12 33q0 51 -51 51q-25 0 -39 -18l-368 -451l-5 6v3h-2z" />
<glyph unicode="y" horiz-adv-x="1204" d="M348 -176q0 51 -51 51t-51 -51q0 -168 106 -289q109 -121 264 -121q154 0 261 121q106 119 112 287v1159q0 51 -51 51t-51 -51v-508q-6 -172 -123 -295q-123 -127 -295 -127t-295 127q-123 129 -123 314v6v501q0 52 -51 52t-51 -52v-507q0 -226 151 -386 q152 -157 369 -157t369 157q26 29 49 60v-164l-4 -190q-4 -121 -80 -205q-80 -90 -187 -90q-108 0 -188 90q-80 88 -80 217z" />
<glyph unicode="z" horiz-adv-x="1106" d="M0 1026q-51 0 -51 -51t51 -51h774l-801 -879q-24 -10 -24 -45q0 -8 2 -14v-4q2 -2 2 -5q6 -14 18 -22q13 -6 29 -6h891q51 0 51 51t-51 51h-776l800 877q25 10 27 41v6q0 8 -2 14q-2 10 -6 17q-2 4 -6 8q-2 2 -6 4t-9 4q-2 2 -4 2h-4q-6 2 -14 2h-891z" />
<glyph unicode="&#xe000;" horiz-adv-x="1040" d="M0 1040h1040v-1040h-1040v1040z" />
<glyph horiz-adv-x="0" />
</font>
</defs>
</svg>
